<svg xmlns="http://www.w3.org/2000/svg" viewBox="0 0 512 512">
  <defs>
    <linearGradient id="bg" x1="0" y1="0" x2="1" y2="1">
      <stop offset="0" stop-color="#F6C453"/>
      <stop offset="1" stop-color="#E48E2B"/>
    </linearGradient>
    <linearGradient id="glow" x1="0" y1="0" x2="0" y2="1">
      <stop offset="0" stop-color="#FFFFFF" stop-opacity=".18"/>
      <stop offset="1" stop-color="#FFFFFF" stop-opacity="0"/>
    </linearGradient>
  <clipPath id="c"><rect width="512" height="512" rx="112"/></clipPath>
  </defs>
  <g clip-path="url(#c)">
  <rect width="512" height="512" rx="112" fill="url(#bg)"/>
  <!-- soft arc, echoing the cover's large curved shape -->
  <path d="M512 150 A300 300 0 0 0 150 512 L512 512 Z" fill="#F7CE62" opacity=".35"/>
  <rect width="512" height="256" rx="112" fill="url(#glow)"/>
  </g>
  <!-- taxi roof sign with checker band -->
  <g transform="translate(156 112)">
    <rect x="0" y="0" width="200" height="72" rx="18" fill="#FFFFFF"/>
    <g fill="#2B2116">
      <rect x="22" y="16" width="20" height="20" rx="3"/>
      <rect x="62" y="16" width="20" height="20" rx="3"/>
      <rect x="102" y="16" width="20" height="20" rx="3"/>
      <rect x="142" y="16" width="20" height="20" rx="3"/>
      <rect x="42" y="36" width="20" height="20" rx="3"/>
      <rect x="82" y="36" width="20" height="20" rx="3"/>
      <rect x="122" y="36" width="20" height="20" rx="3"/>
      <rect x="162" y="36" width="20" height="20" rx="3"/>
    </g>
  </g>
  <!-- open manual -->
  <g fill="none" stroke="#FFFFFF" stroke-width="26" stroke-linejoin="round" stroke-linecap="round">
    <path d="M256 250 C214 222 160 214 104 222 V392 C160 384 214 392 256 420 C298 392 352 384 408 392 V222 C352 214 298 222 256 250 Z" fill="#FFFFFF" fill-opacity=".14"/>
    <path d="M256 250 V420"/>
  </g>
  <g stroke="#FFFFFF" stroke-width="14" stroke-linecap="round" opacity=".85">
    <path d="M146 282 C178 280 206 285 226 294"/>
    <path d="M146 324 C178 322 206 327 226 336"/>
    <path d="M366 282 C334 280 306 285 286 294"/>
    <path d="M366 324 C334 322 306 327 286 336"/>
  </g>
</svg>
